<svg viewBox="0 0 149.98 149.98" xmlns="http://www.w3.org/2000/svg"><rect fill="#326699" height="149.98" opacity=".8" rx="22.79" width="149.98"/><path d="m43.6 33.25h64.84a11.22 11.22 0 0 1 11.2 11.19v64.84a11.22 11.22 0 0 1 -11.2 11.19h-64.84a11.22 11.22 0 0 1 -11.2-11.19v-64.84a11.22 11.22 0 0 1 11.2-11.19zm52.4 9.68a4 4 0 0 0 -4 3.94v9.39a3.94 3.94 0 0 0 4 3.93h9.86a3.94 3.94 0 0 0 3.93-3.93v-9.39a4 4 0 0 0 -3.93-3.94zm13.83 27.2h-7.73a25.48 25.48 0 0 1 1.12 7.49c0 14.51-12.14 26.27-27.12 26.27s-27.1-11.76-27.1-26.27a25.48 25.48 0 0 1 1.12-7.49h-8v36.87a3.47 3.47 0 0 0 3.47 3.46h60.74a3.47 3.47 0 0 0 3.47-3.46zm-33.73-10.43a17 17 0 1 0 17.52 17c0-9.41-7.84-17-17.52-17z" fill="#ffeed7"/></svg>