<svg viewBox="0 0 149.98 149.98" xmlns="http://www.w3.org/2000/svg"><rect fill="#60caef" height="149.98" opacity=".7" rx="22.79" width="149.98"/><path d="m128.57 47.54a39.18 39.18 0 0 1 -11.28 3.09 19.74 19.74 0 0 0 8.64-10.87 39.29 39.29 0 0 1 -12.48 4.78 19.65 19.65 0 0 0 -33.99 13.46 19.32 19.32 0 0 0 .54 4.45 55.69 55.69 0 0 1 -40.5-20.53 19.69 19.69 0 0 0 6.07 26.24 19.57 19.57 0 0 1 -8.89-2.46v.3a19.65 19.65 0 0 0 15.73 19.21 19.38 19.38 0 0 1 -8.88.34 19.67 19.67 0 0 0 18.36 13.65 39.42 39.42 0 0 1 -24.41 8.41 40.28 40.28 0 0 1 -4.68-.28 55.64 55.64 0 0 0 30.12 8.83c36.14 0 55.91-29.94 55.91-55.91 0-.84 0-1.69-.06-2.54a40.16 40.16 0 0 0 9.8-10.17z" fill="#ffeed7"/></svg>